# xmcd CD database file
#
# Track frame offsets:
#	150
#	23650
#	42930
#	53550
#	80305
#	96670
#	116598
#	138990
#
# Disc length: 2302 seconds
#
# Revision: 0
# Processed by: cddbd v1.4PL0 Copyright (c) Steve Scherf et al.
# Submitted via: CDex 1.51
#
DISCID=6008fc08
DTITLE=Jr Walker and The All Stars - Live
DYEAR=1970
DGENRE=Blues
TTITLE0=Intro-Hip City Part I, Part II
TTITLE1=Sweet Soul
TTITLE2=Home Cookin'
TTITLE3=Something You Got
TTITLE4=(I Know) I'm Losing You
TTITLE5=Come See About Me
TTITLE6=What Does It Take (To Win Your Love)
TTITLE7=Shotgun
EXTD=YEAR: 1970
EXTT0=
EXTT1=
EXTT2=
EXTT3=
EXTT4=
EXTT5=
EXTT6=
EXTT7=
PLAYORDER=
